# xmcd
#
# Track frame offsets: 
#        180
#        14934
#        29677
#        42736
#        53316
#        70694
#        82632
#        93222
#        102193
#        115392
#        126247
#        142568
#        155412
#        165558
#        176263
#        190499
#        203477
#        218353
#
# Disc length: 3081 seconds
#
# Revision: 0
# Processed by: cddbd v1.5.2PL0 Copyright (c) Steve Scherf et al.
# Submitted via: ExactAudioCopy v0.95a4
#
DISCID=e30c0712
DTITLE=Kerry Christensen - Swiss Cowboy
DYEAR=1996
DGENRE=Country
TTITLE0=Cannon Ball Yodel Express
TTITLE1=Old Cowpoke
TTITLE2=Jurassic Ark
TTITLE3=Gypsy's Revenge (Mouth Trumpet)
TTITLE4=Patrons of Bavaria
TTITLE5=Tennessee Banjo Yodel
TTITLE6=Alpine Majesty
TTITLE7=Am Morge
TTITLE8=Sierra Madre
TTITLE9=Appenzeller Jodler
TTITLE10=Indian Love Call
TTITLE11=Spanish Mouth Trumpet
TTITLE12=Chime Bells
TTITLE13=Cajun Road Kill
TTITLE14=Nightingale Song
TTITLE15=2 Lazy 2 Ranch
TTITLE16=Kings Yodel
TTITLE17=Amazing Grace (Alphorn)
EXTD=
EXTT0=
EXTT1=
EXTT2=
EXTT3=
EXTT4=
EXTT5=
EXTT6=
EXTT7=
EXTT8=
EXTT9=
EXTT10=
EXTT11=
EXTT12=
EXTT13=
EXTT14=
EXTT15=
EXTT16=
EXTT17=
PLAYORDER=
